<?xml version="1.0"?>
<svg xmlns="http://www.w3.org/2000/svg" xmlns:xlink="http://www.w3.org/1999/xlink" xmlns:svgjs="http://svgjs.com/svgjs" version="1.1" width="512" height="512" x="0" y="0" viewBox="0 0 511.999 511.999" style="enable-background:new 0 0 512 512" xml:space="preserve" class=""><g>
<g xmlns="http://www.w3.org/2000/svg">
	<g>
		<path d="M479.224,184.798c-17.382-21.22-36.568-46.223-44.207-74.441c-5.848-21.599-3.4-44.516,6.543-61.303    c2.783-4.697,2.145-10.516-1.588-14.481c-3.701-3.933-9.421-4.909-14.23-2.44c-12.497,6.419-28.597,15.38-42.268,27.81    c-20.872,18.977-31.633,42.755-29.522,65.234c1.836,19.561,12.747,35.963,23.3,51.823c2.632,3.955,5.353,8.045,7.823,12.039    c19.497,31.533,11.771,49.302,7.544,55.477c-4.295,6.277-11.36,10.257-18.837,14.471c-1.997,1.124-4.036,2.281-6.059,3.496    c-18.553-16.677-40.844-29.271-65.444-36.364c-1.029-15.792-14.197-28.328-30.244-28.328h-32.072    c-16.045,0-29.21,12.531-30.244,28.319c-24.603,7.093-46.893,19.692-65.447,36.373c-2.023-1.215-4.061-2.371-6.057-3.496    c-7.478-4.213-14.542-8.194-18.837-14.469c-4.226-6.177-11.952-23.946,7.545-55.478c2.47-3.995,5.191-8.085,7.823-12.04    c1.043-1.565,2.085-3.135,3.121-4.706c2.28-3.463,1.321-8.119-2.142-10.399c-3.462-2.281-8.119-1.322-10.399,2.141    c-1.022,1.552-2.052,3.101-3.081,4.648c-2.699,4.058-5.49,8.253-8.092,12.46c-23.268,37.629-14.476,61.169-7.165,71.854    c6.27,9.161,15.614,14.425,23.857,19.071c0.795,0.448,1.577,0.889,2.348,1.328c-18.485,19.988-32.16,44.483-39.179,71.629    c-16.433-2.623-34.25-11.651-50.217-25.847c-17.373-15.445-27.837-34.796-28.708-53.088c-1.336-28.131,15.196-54.56,29.299-71.777    c18.368-22.422,38.669-48.947,47.086-80.033c6.058-22.373,4.641-45.312-3.756-64.381c9.969,5.482,21.122,12.44,30.704,21.152    c17.091,15.539,26.315,35.249,24.674,52.722c-0.387,4.128,2.646,7.789,6.774,8.176c4.129,0.389,7.789-2.645,8.176-6.773    c2.11-22.48-8.651-46.257-29.523-65.234c-13.67-12.43-29.769-21.391-42.268-27.81c-4.811-2.468-10.528-1.488-14.229,2.44    c-3.733,3.965-4.37,9.785-1.588,14.481c9.946,16.788,12.391,39.707,6.544,61.304c-7.641,28.221-26.825,53.224-44.208,74.441    C17.003,204.054-1.47,233.911,0.093,266.805c1.063,22.304,13.356,45.483,33.73,63.597c18.106,16.097,38.031,26.224,57.091,29.388    c-1.049,6.415-1.739,12.949-2.033,19.585H70.359c-6.9,0-12.512,5.612-12.512,12.512v76.819c0,6.9,5.612,12.512,12.512,12.512    H441.64c6.9,0,12.512-5.612,12.512-12.512v-76.819c0-6.9-5.612-12.512-12.512-12.512h-18.521    c-0.294-6.634-0.983-13.169-2.032-19.583c19.06-3.164,38.986-13.295,57.091-29.39c20.373-18.113,32.667-41.292,33.729-63.598    C513.469,233.907,494.996,204.052,479.224,184.798z M302.353,241.828c59.089,18.926,102.592,73.019,105.739,137.543H302.353    V241.828z M209.647,241.823v41.199c0,4.147,3.361,7.507,7.507,7.507c4.146,0,7.507-3.36,7.507-7.507v-54.914    c0-8.438,6.865-15.302,15.303-15.302h32.072c8.438,0,15.302,6.864,15.302,15.302v151.264h-62.677V329.4    c0-4.147-3.361-7.507-7.507-7.507s-7.507,3.36-7.507,7.507v49.972H103.908C107.055,314.846,150.556,260.749,209.647,241.823z     M439.138,394.387v71.814H72.862v-71.814H439.138z M496.91,266.088c-0.872,18.294-11.335,37.645-28.709,53.09    c-15.97,14.198-33.782,23.211-50.219,25.829c-7.021-27.138-20.705-51.621-39.189-71.605c0.776-0.441,1.561-0.885,2.36-1.334    c8.243-4.646,17.587-9.91,23.858-19.073c7.311-10.683,16.102-34.223-7.165-71.854c-2.603-4.206-5.393-8.402-8.093-12.459    c-9.961-14.972-19.37-29.113-20.852-44.91c-1.64-17.473,7.584-37.182,24.675-52.722c9.58-8.711,20.734-15.669,30.703-21.151    c-8.397,19.069-9.814,42.007-3.756,64.38c8.414,31.083,28.716,57.609,47.085,80.033    C481.713,211.53,498.245,237.959,496.91,266.088z" fill="#ffffff" data-original="#000000" style="" class=""/>
	</g>
</g>
<g xmlns="http://www.w3.org/2000/svg">
</g>
<g xmlns="http://www.w3.org/2000/svg">
</g>
<g xmlns="http://www.w3.org/2000/svg">
</g>
<g xmlns="http://www.w3.org/2000/svg">
</g>
<g xmlns="http://www.w3.org/2000/svg">
</g>
<g xmlns="http://www.w3.org/2000/svg">
</g>
<g xmlns="http://www.w3.org/2000/svg">
</g>
<g xmlns="http://www.w3.org/2000/svg">
</g>
<g xmlns="http://www.w3.org/2000/svg">
</g>
<g xmlns="http://www.w3.org/2000/svg">
</g>
<g xmlns="http://www.w3.org/2000/svg">
</g>
<g xmlns="http://www.w3.org/2000/svg">
</g>
<g xmlns="http://www.w3.org/2000/svg">
</g>
<g xmlns="http://www.w3.org/2000/svg">
</g>
<g xmlns="http://www.w3.org/2000/svg">
</g>
</g></svg>
